<?xml version="1.0" encoding="UTF-8" standalone="no"?>
<!DOCTYPE svg PUBLIC "-//W3C//DTD SVG 1.1//EN" "http://www.w3.org/Graphics/SVG/1.1/DTD/svg11.dtd">
<svg width="100%" height="100%" viewBox="0 0 2000 2000" version="1.1" xmlns="http://www.w3.org/2000/svg" xmlns:xlink="http://www.w3.org/1999/xlink" xml:space="preserve" xmlns:serif="http://www.serif.com/" style="fill-rule:evenodd;clip-rule:evenodd;stroke-linejoin:round;stroke-miterlimit:2;">
    <g id="Layer-1" serif:id="Layer 1" transform="matrix(4.16667,0,0,4.16667,-275,-650)">
        <g transform="matrix(0.96,0,0,0.96,306,156)">
            <path d="M0,500C-138.071,500 -250,388.071 -250,250C-250,111.929 -138.071,0 0,0C138.071,0 250,111.929 250,250C250,388.071 138.071,500 0,500M0,481.422C127.811,481.422 231.422,377.811 231.422,250C231.422,122.189 127.811,18.578 0,18.578C-127.811,18.578 -231.422,122.189 -231.422,250C-231.422,377.811 -127.811,481.422 0,481.422" style="fill-rule:nonzero;"/>
        </g>
        <g transform="matrix(0.96,0,0,0.96,255.393,458.421)">
            <path d="M0,-28.181L-0.363,-28.181L-0.363,0L0.365,0C6.803,0 11.541,-3.766 11.541,-13.726L11.541,-14.699C11.541,-25.387 6.438,-28.181 0,-28.181" style="fill-rule:nonzero;"/>
        </g>
        <g transform="matrix(0.96,0,0,0.96,169.328,443.728)">
            <path d="M0,28.06L9.11,28.06L4.615,0L0,28.06Z" style="fill-rule:nonzero;"/>
        </g>
        <g transform="matrix(0.96,0,0,0.96,350.782,443.728)">
            <path d="M0,28.06L9.11,28.06L4.616,0L0,28.06Z" style="fill-rule:nonzero;"/>
        </g>
        <g transform="matrix(0.96,0,0,0.96,421.912,319.936)">
            <path d="M0,0.728L0,-0.244C0,-10.933 -5.103,-13.727 -11.54,-13.727L-11.904,-13.727L-11.904,14.455L-11.176,14.455C-4.737,14.455 0,10.689 0,0.728" style="fill-rule:nonzero;"/>
        </g>
        <g transform="matrix(0.96,0,0,0.96,288.507,321.219)">
            <path d="M0,0.486L0,0.243C0,-10.568 -4.129,-15.184 -10.566,-15.184L-11.053,-15.184L-11.053,15.67L-10.932,15.67C-4.736,15.305 0,10.81 0,0.486" style="fill-rule:nonzero;"/>
        </g>
        <g transform="matrix(0.96,0,0,0.96,234.983,305.36)">
            <path d="M0,60.249C4.494,60.249 7.531,54.175 7.531,32.311L7.531,27.937C7.531,6.073 4.494,0 0,0C-4.494,0 -7.531,6.073 -7.531,27.937L-7.531,32.311C-7.531,54.175 -4.494,60.249 0,60.249" style="fill-rule:nonzero;"/>
        </g>
        <g transform="matrix(0.96,0,0,0.96,397.426,458.421)">
            <path d="M0,-28.181L-0.364,-28.181L-0.364,0L0.364,0C6.803,0 11.54,-3.766 11.54,-13.726L11.54,-14.699C11.54,-25.387 6.437,-28.181 0,-28.181" style="fill-rule:nonzero;"/>
        </g>
        <g transform="matrix(0.96,0,0,0.96,12.24,15.84)">
            <path d="M143.543,390.97L468.456,390.97L468.456,401.031L143.543,401.031L143.543,390.97ZM467.558,433.084L457.111,433.084L457.111,504.021L442.292,504.021L442.292,433.084L431.846,433.084L431.846,418.993L467.558,418.993L467.558,433.084ZM413.261,504.021L403.665,474.383L403.422,474.383L400.871,474.383L400.871,504.021L386.052,504.021L386.052,418.993L401.356,418.993C416.541,418.993 427.595,427.01 427.595,446.081L427.595,447.174C427.595,458.228 423.222,465.273 417.634,469.524L429.052,504.021L413.261,504.021ZM366.738,504.021L363.944,487.138L350.461,487.138L347.789,504.021L333.455,504.021L349.611,418.75L365.402,418.75L381.558,504.021L366.738,504.021ZM328.961,504.021L314.142,504.021L314.142,468.31L301.266,468.31L301.266,504.021L286.446,504.021L286.446,418.993L301.266,418.993L301.266,454.22L314.142,454.22L314.142,418.993L328.961,418.993L328.961,504.021ZM265.311,504.021L255.714,474.383L255.472,474.383L252.921,474.383L252.921,504.021L238.101,504.021L238.101,418.993L253.406,418.993C268.591,418.993 279.644,427.01 279.644,446.081L279.644,447.174C279.644,458.228 275.271,465.273 269.683,469.524L281.102,504.021L265.311,504.021ZM217.937,470.496L217.937,504.021L203.118,504.021L203.118,470.496L187.327,418.993L202.632,418.993L210.649,450.818L218.788,418.993L233.729,418.993L217.937,470.496ZM177.724,504.021L174.931,487.138L161.447,487.138L158.774,504.021L144.442,504.021L160.597,418.75L176.388,418.75L192.544,504.021L177.724,504.021ZM168.981,289.193L204.694,289.193L204.694,303.283L194.247,303.283L194.247,374.222L179.429,374.222L179.429,303.283L168.981,303.283L168.981,289.193ZM209.431,329.521C209.431,301.461 218.542,287.979 232.024,287.979C245.508,287.979 254.618,301.461 254.618,329.521L254.618,333.894C254.618,361.953 245.508,375.437 232.024,375.437C218.542,375.437 209.431,361.953 209.431,333.894L209.431,329.521ZM261.905,289.193L275.146,289.193C291.302,289.193 302.599,297.938 302.599,317.859L302.599,318.103C302.599,337.295 291.909,346.405 276.847,347.498L276.726,347.498L276.726,374.222L261.905,374.222L261.905,289.193ZM308.672,289.193L323.492,289.193L323.492,324.419L336.367,324.419L336.367,289.193L351.187,289.193L351.187,374.222L336.367,374.222L336.367,338.51L323.492,338.51L323.492,374.222L308.672,374.222L308.672,289.193ZM359.933,289.193L392.486,289.193L392.486,303.283L374.752,303.283L374.752,324.419L390.422,324.419L390.422,338.51L374.752,338.51L374.752,360.131L392.851,360.131L392.851,374.222L359.933,374.222L359.933,289.193ZM400.018,289.193L415.322,289.193C430.507,289.193 441.561,297.21 441.561,316.28L441.561,317.374C441.561,328.428 437.187,335.473 431.6,339.725L443.018,374.222L427.227,374.222L417.631,344.583L417.388,344.583L414.837,344.583L414.837,374.222L400.018,374.222L400.018,289.193ZM306,180.355C186.902,180.355 90.355,276.902 90.355,396C90.355,515.098 186.902,611.645 306,611.645C425.097,611.645 521.645,515.098 521.645,396C521.645,276.902 425.097,180.355 306,180.355" style="fill-rule:nonzero;"/>
        </g>
    </g>
</svg>
